<?xml version="1.0" encoding="UTF-8" standalone="no"?>
<!DOCTYPE svg PUBLIC "-//W3C//DTD SVG 1.1//EN" "http://www.w3.org/Graphics/SVG/1.1/DTD/svg11.dtd">
<svg width="100%" height="100%" viewBox="0 0 500 50" version="1.1" xmlns="http://www.w3.org/2000/svg" xmlns:xlink="http://www.w3.org/1999/xlink" xml:space="preserve" xmlns:serif="http://www.serif.com/" style="fill-rule:evenodd;clip-rule:evenodd;stroke-linejoin:round;stroke-miterlimit:2;">
    <g transform="matrix(0.172806,0,0,0.169861,-6.40355,-1.4002)">
        <g transform="matrix(1,0,0,1,-7.24306,-4.05246)">
            <path d="M160,170L140,170L140,190L160,190L160,170ZM190,170L170,170L170,190L190,190L190,170ZM160,140L140,140L140,160L160,160L160,140ZM190,140L170,140L170,160L190,160L190,140Z" style="fill:white;fill-opacity:0.87;"/>
        </g>
        <path d="M123.122,199.99C123.752,199.768 124.488,199.771 125.266,200C131.117,201.718 165.299,231.903 179.266,241C193.233,250.097 223.713,250.951 224.266,248C226.681,235.102 206.664,234.297 206.266,222C205.923,211.414 252.47,234.588 278.744,248.498C279.162,248.321 279.579,248.142 280,247.958L280,141L279.5,141L279.5,140.5L191.5,72.5L117.838,129.42C129.596,67.16 184.334,20 250,20C324.233,20 384.5,80.267 384.5,154.5C384.5,213.761 346.091,264.122 292.832,282.024C282.264,286.062 271.01,288.815 259.237,290.074C198.622,296.56 143.069,261.45 121.086,207.692C121.138,207.758 121.189,207.824 121.241,207.89C121.238,207.881 121.235,207.872 121.231,207.862C120.693,206.361 120.426,204.462 121.203,202.493C121.428,201.373 121.962,200.606 122.683,200.192C122.851,200.052 122.997,199.989 123.122,199.99Z" style="fill:white;fill-opacity:0.54;"/>
    </g>
    <g transform="matrix(1,0,0,1,-5,-9.25031)">
        <text x="74.391px" y="42.417px" style="font-family:'Montserrat-Regular', 'Montserrat';font-size:29.167px;fill:white;">IN HOME SOL<tspan x="276.954px 299.645px " y="42.417px 42.417px ">UT</tspan>IONS<tspan x="391.899px " y="42.417px ">,</tspan> LL<tspan x="439.674px " y="42.417px ">C</tspan></text>
    </g>
</svg>
